<svg width="401" height="73" viewBox="0 0 401 73" fill="none" xmlns="http://www.w3.org/2000/svg">
<path d="M26.688 72.248C21.12 72.248 16.128 71.096 11.712 68.792C7.36 66.424 3.776 62.744 0.96 57.752L12.576 50.36C14.24 53.688 16.352 56.184 18.912 57.848C21.536 59.448 24.384 60.248 27.456 60.248C30.528 60.248 32.96 59.544 34.752 58.136C36.608 56.728 37.536 54.872 37.536 52.568C37.536 50.456 36.864 48.728 35.52 47.384C34.176 46.04 32.448 44.984 30.336 44.216C28.288 43.384 25.568 42.52 22.176 41.624C16.8 40.216 12.608 37.944 9.6 34.808C6.656 31.672 5.184 27.64 5.184 22.712C5.184 18.744 6.176 15.256 8.16 12.248C10.144 9.176 12.928 6.808 16.512 5.144C20.096 3.48 24.224 2.648 28.896 2.648C33.952 2.648 38.24 3.704 41.76 5.816C45.344 7.928 48.448 11.032 51.072 15.128L39.552 22.232C37.888 19.544 36.192 17.624 34.464 16.472C32.736 15.256 30.656 14.648 28.224 14.648C25.472 14.648 23.232 15.32 21.504 16.664C19.776 18.008 18.912 19.8 18.912 22.04C18.912 24.28 19.776 25.976 21.504 27.128C23.232 28.216 25.92 29.336 29.568 30.488C34.048 31.896 37.632 33.208 40.32 34.424C43.008 35.64 45.504 37.688 47.808 40.568C50.112 43.384 51.264 47.128 51.264 51.8C51.264 55.832 50.272 59.416 48.288 62.552C46.304 65.624 43.456 68.024 39.744 69.752C36.032 71.416 31.68 72.248 26.688 72.248ZM75.1583 71C70.1023 71 66.2943 69.752 63.7343 67.256C61.1743 64.76 59.8943 60.856 59.8943 55.544V32.12H52.8863V21.08H59.8943V11L72.8543 9.65599V21.08H83.4143V32.12H72.8543V54.872C72.8543 57.944 74.1983 59.48 76.8863 59.48H82.2623V71H75.1583ZM109.186 72.248C104.706 72.248 100.578 71.096 96.8018 68.792C93.0258 66.424 90.0178 63.256 87.7778 59.288C85.6018 55.32 84.5138 50.968 84.5138 46.232C84.5138 41.496 85.6018 37.144 87.7778 33.176C90.0178 29.144 93.0258 25.944 96.8018 23.576C100.578 21.208 104.706 20.024 109.186 20.024C113.282 20.024 116.578 20.792 119.074 22.328C121.634 23.864 123.618 26.072 125.026 28.952V21.08H137.89V71H125.314V62.84C123.842 65.848 121.826 68.184 119.266 69.848C116.77 71.448 113.41 72.248 109.186 72.248ZM97.4738 46.136C97.4738 48.696 98.0498 51.096 99.2018 53.336C100.418 55.512 102.05 57.272 104.098 58.616C106.21 59.896 108.61 60.536 111.298 60.536C114.05 60.536 116.482 59.896 118.594 58.616C120.77 57.336 122.434 55.608 123.586 53.432C124.738 51.256 125.314 48.856 125.314 46.232C125.314 43.608 124.738 41.208 123.586 39.032C122.434 36.792 120.77 35.032 118.594 33.752C116.482 32.408 114.05 31.736 111.298 31.736C108.61 31.736 106.21 32.408 104.098 33.752C101.986 35.032 100.354 36.76 99.2018 38.936C98.0498 41.112 97.4738 43.512 97.4738 46.136ZM145.59 21.08H158.166V30.584C159.062 26.936 160.79 24.184 163.35 22.328C165.974 20.472 169.398 19.672 173.622 19.928V32.12H171.798C167.958 32.12 164.79 33.336 162.294 35.768C159.798 38.136 158.55 41.368 158.55 45.464V71H145.59V21.08ZM197.971 71C192.915 71 189.107 69.752 186.547 67.256C183.987 64.76 182.707 60.856 182.707 55.544V32.12H175.699V21.08H182.707V11L195.667 9.65599V21.08H206.227V32.12H195.667V54.872C195.667 57.944 197.011 59.48 199.699 59.48H205.075V71H197.971ZM210.559 21.08H223.135V30.584C224.031 26.936 225.759 24.184 228.319 22.328C230.943 20.472 234.367 19.672 238.591 19.928V32.12H236.767C232.927 32.12 229.759 33.336 227.263 35.768C224.767 38.136 223.519 41.368 223.519 45.464V71H210.559V21.08ZM263.217 72.248C258.737 72.248 254.609 71.096 250.833 68.792C247.057 66.424 244.049 63.256 241.809 59.288C239.633 55.32 238.545 50.968 238.545 46.232C238.545 41.496 239.633 37.144 241.809 33.176C244.049 29.144 247.057 25.944 250.833 23.576C254.609 21.208 258.737 20.024 263.217 20.024C267.313 20.024 270.609 20.792 273.105 22.328C275.665 23.864 277.649 26.072 279.057 28.952V21.08H291.921V71H279.345V62.84C277.873 65.848 275.857 68.184 273.297 69.848C270.801 71.448 267.441 72.248 263.217 72.248ZM251.505 46.136C251.505 48.696 252.081 51.096 253.233 53.336C254.449 55.512 256.081 57.272 258.129 58.616C260.241 59.896 262.641 60.536 265.329 60.536C268.081 60.536 270.513 59.896 272.625 58.616C274.801 57.336 276.465 55.608 277.617 53.432C278.769 51.256 279.345 48.856 279.345 46.232C279.345 43.608 278.769 41.208 277.617 39.032C276.465 36.792 274.801 35.032 272.625 33.752C270.513 32.408 268.081 31.736 265.329 31.736C262.641 31.736 260.241 32.408 258.129 33.752C256.017 35.032 254.385 36.76 253.233 38.936C252.081 41.112 251.505 43.512 251.505 46.136ZM323.429 72.248C318.757 72.248 314.437 71.096 310.469 68.792C306.565 66.424 303.461 63.224 301.157 59.192C298.853 55.16 297.701 50.776 297.701 46.04C297.701 41.24 298.853 36.856 301.157 32.888C303.461 28.856 306.661 25.688 310.757 23.384C314.853 21.016 319.429 19.832 324.485 19.832C328.901 19.832 332.869 20.664 336.389 22.328C339.909 23.928 342.725 26.2 344.837 29.144L334.853 37.304C333.701 35.576 332.197 34.2 330.341 33.176C328.485 32.152 326.469 31.64 324.293 31.64C321.605 31.64 319.237 32.312 317.189 33.656C315.141 34.936 313.541 36.664 312.389 38.84C311.237 41.016 310.661 43.416 310.661 46.04C310.661 48.6 311.237 51 312.389 53.24C313.605 55.416 315.269 57.176 317.381 58.52C319.493 59.8 321.893 60.44 324.581 60.44C326.949 60.44 328.997 59.928 330.725 58.904C332.453 57.88 334.021 56.408 335.429 54.488L344.837 62.648C339.845 69.048 332.709 72.248 323.429 72.248ZM362.925 47.288V71H349.965V0.919998H362.925V41.24L381.645 21.08H400.077L376.557 44.312L400.173 71H382.989L362.925 47.288Z" fill="black"/>
</svg>
